<svg width="580" height="400" xmlns="http://www.w3.org/2000/svg">
 <!-- Created with Method Draw - http://github.com/duopixel/Method-Draw/ -->
 <g>
  <title>background</title>
  <rect fill="#fff" id="canvas_background" height="402" width="582" y="-1" x="-1"/>
  <g display="none" overflow="visible" y="0" x="0" height="100%" width="100%" id="canvasGrid">
   <rect fill="url(#gridpattern)" stroke-width="0" y="0" x="0" height="100%" width="100%"/>
  </g>
 </g>
 <g>
  <title>Layer 1</title>
  <path d="m68.5,79.5c0,0 0.915764,-0.265656 10,-3c25.783165,-7.760696 62.673248,-18.493225 119,-22c32.936234,-2.050537 57.424576,3.963844 78,13c14.331329,6.293915 25.16684,13.025726 30,20c6.882446,9.931366 12.741882,27.858826 16,47c3.89212,22.865936 5.677521,42.064056 4,64c-1.00293,13.114655 -5.950134,25.950119 -16,36c-10.049866,10.049881 -26.3797,19.188782 -44,23c-22.564987,4.880737 -56.698502,4.333771 -97,-9c-49.010864,-16.215286 -84.820663,-31.974289 -118,-54c-10.66935,-7.082718 -13.498291,-14.937958 -14,-21c-0.989765,-11.959106 0.180611,-28.013138 -1,-43c-0.867428,-11.011246 -3.387012,-22.096657 -2,-32c1.009762,-7.20974 6.74437,-12.497063 20,-19c8.842152,-4.337776 18.891502,-7.347595 28,-10c3.958679,-1.152771 8,-1 9,-1l1,0" id="svg_1" stroke-width="1.5" stroke="#000" fill="none"/>
  <line stroke-linecap="undefined" stroke-linejoin="undefined" id="svg_2" y2="293.5" x2="407.5" y1="54.5" x1="411.5" stroke-width="1.5" stroke="#000" fill="none"/>
  <line stroke-linecap="undefined" stroke-linejoin="undefined" id="svg_3" y2="282.5" x2="202.5" y1="242.5" x1="472.5" stroke-width="1.5" stroke="#000" fill="none"/>
  <line stroke-linecap="undefined" stroke-linejoin="undefined" id="svg_4" y2="170.5" x2="548.5" y1="296.5" x1="124.5" stroke-width="1.5" stroke="#000" fill="none"/>
  <line stroke-linecap="undefined" stroke-linejoin="undefined" id="svg_5" y2="79.5" x2="97.5" y1="58.5" x1="474.5" stroke-width="1.5" stroke="#000" fill="none"/>
 </g>
</svg>